<svg width="26" height="38" viewBox="0 0 26 38" fill="none" xmlns="http://www.w3.org/2000/svg">
<rect x="2" y="1.5" width="22" height="21" fill="white" stroke="black" stroke-width="3"/>
<path d="M8.51884 29.424V35H7.79084V29.424H8.51884ZM13.5276 31.056C13.5276 31.52 13.3676 31.9067 13.0476 32.216C12.7329 32.52 12.2503 32.672 11.5996 32.672H10.5276V35H9.79959V29.424H11.5996C12.2289 29.424 12.7063 29.576 13.0316 29.88C13.3623 30.184 13.5276 30.576 13.5276 31.056ZM11.5996 32.072C12.0049 32.072 12.3036 31.984 12.4956 31.808C12.6876 31.632 12.7836 31.3813 12.7836 31.056C12.7836 30.368 12.3889 30.024 11.5996 30.024H10.5276V32.072H11.5996ZM16.7524 32.216L18.4644 35H17.6404L16.3044 32.824L15.0324 35H14.2244L15.9284 32.216L14.2164 29.424H15.0324L16.3764 31.608L17.6564 29.424H18.4724L16.7524 32.216Z" fill="black"/>
<rect x="7.5" y="6.5" width="11" height="11" fill="white" stroke="black"/>
<path d="M2 1L8 7" stroke="black"/>
<path d="M8 17L2 23" stroke="black"/>
<path d="M25 1L18 7" stroke="black"/>
<path d="M18 17L25 23" stroke="black"/>
<path d="M14 3V21" stroke="black" stroke-width="0.2"/>
<path d="M10 3V21" stroke="black" stroke-width="0.2"/>
<path d="M6 3V21" stroke="black" stroke-width="0.2"/>
<path d="M18 3V21" stroke="black" stroke-width="0.2"/>
<path d="M16 3V21" stroke="black" stroke-width="0.2"/>
<path d="M12 3V21" stroke="black" stroke-width="0.2"/>
<path d="M8 3V21" stroke="black" stroke-width="0.2"/>
<path d="M20 3V21" stroke="black" stroke-width="0.2"/>
<path d="M15 3V21" stroke="black" stroke-width="0.2"/>
<path d="M11 3V21" stroke="black" stroke-width="0.2"/>
<path d="M7 3V21" stroke="black" stroke-width="0.2"/>
<path d="M5 3V21" stroke="black" stroke-width="0.2"/>
<path d="M19 3V21" stroke="black" stroke-width="0.2"/>
<path d="M17 3V21" stroke="black" stroke-width="0.2"/>
<path d="M22 3V21" stroke="black" stroke-width="0.2"/>
<path d="M13 3V21" stroke="black" stroke-width="0.2"/>
<path d="M9 3V21" stroke="black" stroke-width="0.2"/>
<path d="M21 3V21" stroke="black" stroke-width="0.2"/>
</svg>
