<svg width="25" height="24" viewBox="0 0 25 24" fill="none" xmlns="http://www.w3.org/2000/svg">
<rect x="0.5" y="0.5" width="24" height="23" fill="white" stroke="black"/>
<path d="M1 23L8 12" stroke="black"/>
<path d="M1 1L8 12" stroke="black"/>
<path d="M24 1L18 12" stroke="black"/>
<path d="M24 23L18 12" stroke="black"/>
<path d="M8 12L18 12" stroke="black"/>
<path d="M13 12.5V23" stroke="black" stroke-width="0.2"/>
<path d="M9 12.5V23" stroke="black" stroke-width="0.2"/>
<path d="M14 12V24" stroke="black" stroke-width="0.2"/>
<path d="M10 12V24" stroke="black" stroke-width="0.2"/>
<path d="M15 12.5V23" stroke="black" stroke-width="0.2"/>
<path d="M17 12.5V23" stroke="black" stroke-width="0.2"/>
<path d="M11 12.5V23" stroke="black" stroke-width="0.2"/>
<path d="M7 13V23" stroke="black" stroke-width="0.2"/>
<path d="M6 15V23" stroke="black" stroke-width="0.2"/>
<path d="M19 14V23" stroke="black" stroke-width="0.2"/>
<path d="M5 16V23" stroke="black" stroke-width="0.2"/>
<path d="M20 16V23" stroke="black" stroke-width="0.2"/>
<path d="M4 18V23" stroke="black" stroke-width="0.2"/>
<path d="M21 18V23" stroke="black" stroke-width="0.2"/>
<path d="M3 19V23" stroke="black" stroke-width="0.2"/>
<path d="M22 19V23" stroke="black" stroke-width="0.2"/>
<path d="M16 12V24" stroke="black" stroke-width="0.2"/>
<path d="M18 12V24" stroke="black" stroke-width="0.2"/>
<path d="M12 12V24" stroke="black" stroke-width="0.2"/>
<path d="M8 12V24" stroke="black" stroke-width="0.2"/>
</svg>
