<svg width="25" height="24" viewBox="0 0 25 24" fill="none" xmlns="http://www.w3.org/2000/svg">
<rect x="0.5" y="0.5" width="24" height="23" fill="white" stroke="black"/>
<path d="M1 23L8 17" stroke="black"/>
<path d="M1 1L8 7" stroke="black"/>
<path d="M24 1L18 7" stroke="black"/>
<path d="M24 23L18.5 17.5" stroke="black"/>
<rect x="3" y="6" width="19" height="12" fill="#4D8B51"/>
<path d="M5 6L3 8" stroke="black" stroke-width="0.2"/>
<path d="M20.0472 17.9171L21.9367 15.9989" stroke="black" stroke-width="0.2"/>
<path d="M20.9948 17.9075L21.9944 17.0052" stroke="black" stroke-width="0.2"/>
<path d="M3.04026 6.90767L3.99999 6.0693" stroke="black" stroke-width="0.2"/>
<path d="M6 6L3 9" stroke="black" stroke-width="0.2"/>
<path d="M19.1602 18.0007L21.9992 15.0006" stroke="black" stroke-width="0.2"/>
<path d="M7 6L3 10" stroke="black" stroke-width="0.2"/>
<path d="M18.2152 17.8931L22.0005 14.0006" stroke="black" stroke-width="0.2"/>
<path d="M8 6L3 11" stroke="black" stroke-width="0.2"/>
<path d="M17.2688 17.9462L22.0005 12.9999" stroke="black" stroke-width="0.2"/>
<path d="M9 6L3 12" stroke="black" stroke-width="0.2"/>
<path d="M16.3224 17.9994L22.0004 11.9993" stroke="black" stroke-width="0.2"/>
<path d="M10 6L3 13" stroke="black" stroke-width="0.2"/>
<path d="M11 6L3 14" stroke="black" stroke-width="0.2"/>
<path d="M12 6L3 15" stroke="black" stroke-width="0.2"/>
<path d="M16 6L4 18" stroke="black" stroke-width="0.2"/>
<path d="M19 6L7 18" stroke="black" stroke-width="0.2"/>
<path d="M22 6L10 18" stroke="black" stroke-width="0.2"/>
<path d="M22 9L13 18" stroke="black" stroke-width="0.2"/>
<path d="M13 6L3 16" stroke="black" stroke-width="0.2"/>
<path d="M17 6L5 18" stroke="black" stroke-width="0.2"/>
<path d="M20 6L8 18" stroke="black" stroke-width="0.2"/>
<path d="M22 7L11 18" stroke="black" stroke-width="0.2"/>
<path d="M22 10L14 18" stroke="black" stroke-width="0.2"/>
<path d="M14 6L3 17" stroke="black" stroke-width="0.2"/>
<path d="M18 6L6 18" stroke="black" stroke-width="0.2"/>
<path d="M21 6L9 18" stroke="black" stroke-width="0.2"/>
<path d="M22 8L12 18" stroke="black" stroke-width="0.2"/>
<path d="M22 11L15 18" stroke="black" stroke-width="0.2"/>
<path d="M15 6L3 18" stroke="black" stroke-width="0.2"/>
</svg>
