<svg width="25" height="24" viewBox="0 0 25 24" fill="none" xmlns="http://www.w3.org/2000/svg">
<rect x="1.5" y="1.5" width="22" height="21" fill="white" stroke="black" stroke-width="3"/>
<rect x="6.5" y="6.5" width="11" height="11" fill="white" stroke="black"/>
<path d="M1 1L7 7" stroke="black"/>
<path d="M7 17L1 23" stroke="black"/>
<path d="M24 1L17 7" stroke="black"/>
<path d="M17 17L24 23" stroke="black"/>
<path d="M13 3V21" stroke="black" stroke-width="0.2"/>
<path d="M9 3V21" stroke="black" stroke-width="0.2"/>
<path d="M5 3V21" stroke="black" stroke-width="0.2"/>
<path d="M17 3V21" stroke="black" stroke-width="0.2"/>
<path d="M15 3V21" stroke="black" stroke-width="0.2"/>
<path d="M11 3V21" stroke="black" stroke-width="0.2"/>
<path d="M7 3V21" stroke="black" stroke-width="0.2"/>
<path d="M19 3V21" stroke="black" stroke-width="0.2"/>
<path d="M14 3V21" stroke="black" stroke-width="0.2"/>
<path d="M10 3V21" stroke="black" stroke-width="0.2"/>
<path d="M6 3V21" stroke="black" stroke-width="0.2"/>
<path d="M4 3V21" stroke="black" stroke-width="0.2"/>
<path d="M18 3V21" stroke="black" stroke-width="0.2"/>
<path d="M16 3V21" stroke="black" stroke-width="0.2"/>
<path d="M21 3V21" stroke="black" stroke-width="0.2"/>
<path d="M12 3V21" stroke="black" stroke-width="0.2"/>
<path d="M8 3V21" stroke="black" stroke-width="0.2"/>
<path d="M20 3V21" stroke="black" stroke-width="0.2"/>
</svg>
