<svg width="26" height="44" viewBox="0 0 26 44" fill="none" xmlns="http://www.w3.org/2000/svg">
<rect x="2" y="1.5" width="22" height="21" fill="white" stroke="black" stroke-width="3"/>
<path d="M13.4318 42L3.5 24H22.5L13.4318 42Z" fill="black" stroke="black"/>
<rect x="7.5" y="6.5" width="11" height="11" fill="white" stroke="black"/>
<path d="M2 1L8 7" stroke="black"/>
<path d="M8 17L2 23" stroke="black"/>
<path d="M25 1L18 7" stroke="black"/>
<path d="M18 17L25 23" stroke="black"/>
<path d="M14 3V21" stroke="black" stroke-width="0.2"/>
<path d="M10 3V21" stroke="black" stroke-width="0.2"/>
<path d="M6 3V21" stroke="black" stroke-width="0.2"/>
<path d="M18 3V21" stroke="black" stroke-width="0.2"/>
<path d="M16 3V21" stroke="black" stroke-width="0.2"/>
<path d="M12 3V21" stroke="black" stroke-width="0.2"/>
<path d="M8 3V21" stroke="black" stroke-width="0.2"/>
<path d="M20 3V21" stroke="black" stroke-width="0.2"/>
<path d="M15 3V21" stroke="black" stroke-width="0.2"/>
<path d="M11 3V21" stroke="black" stroke-width="0.2"/>
<path d="M7 3V21" stroke="black" stroke-width="0.2"/>
<path d="M5 3V21" stroke="black" stroke-width="0.2"/>
<path d="M19 3V21" stroke="black" stroke-width="0.2"/>
<path d="M17 3V21" stroke="black" stroke-width="0.2"/>
<path d="M22 3V21" stroke="black" stroke-width="0.2"/>
<path d="M13 3V21" stroke="black" stroke-width="0.2"/>
<path d="M9 3V21" stroke="black" stroke-width="0.2"/>
<path d="M21 3V21" stroke="black" stroke-width="0.2"/>
</svg>
